<?xml version="1.0" encoding="UTF-8"?>
<!DOCTYPE svg PUBLIC "-//W3C//DTD SVG 1.1//EN" "http://www.w3.org/Graphics/SVG/1.1/DTD/svg11.dtd">
<!-- Creator: CorelDRAW 2017 -->
<svg xmlns="http://www.w3.org/2000/svg" xml:space="preserve" width="8.4668mm" height="8.4666mm" version="1.1" style="shape-rendering:geometricPrecision; text-rendering:geometricPrecision; image-rendering:optimizeQuality; fill-rule:evenodd; clip-rule:evenodd"
viewBox="0 0 28.48 28.48"
 xmlns:xlink="http://www.w3.org/1999/xlink">
 <defs>
  <style type="text/css">
   <![CDATA[
    .fil1 {fill:none}
    .fil0 {fill:#FFDCC8}
   ]]>
  </style>
 </defs>
 <g id="Слой_x0020_1">
  <metadata id="CorelCorpID_0Corel-Layer"/>
  <path class="fil0" d="M8.31 7.25c-3.94,3.04 -0.2,8 2.45,10.49 0.19,0.18 0.32,0.33 0.53,0.5 0.19,0.15 0.37,0.31 0.56,0.47 0.35,0.29 0.76,0.59 1.19,0.87 1.72,1.12 4.07,2.22 6.25,1.62 0.89,-0.24 2.01,-0.96 2.39,-1.72 0.14,-0.28 0.31,-1.49 0.12,-1.71 -0.17,-0.19 -2.33,-1.24 -2.7,-1.41 -1.25,-0.54 -0.93,-0.68 -2.31,1.07 -0.5,0.64 -0.35,0.71 -1.28,0.34 -1.2,-0.48 -2.82,-1.68 -3.57,-2.59 -0.31,-0.38 -0.62,-0.72 -0.92,-1.14 -1.01,-1.41 -0.52,-0.89 0.48,-2.49 0.42,-0.67 0.26,-0.67 -0.05,-1.44 -0.17,-0.42 -1.05,-2.65 -1.27,-2.83 -0.17,-0.14 -1.03,-0.11 -1.42,-0.13 -0.36,-0.01 -0.25,-0.05 -0.46,0.11z"/>
  <rect class="fil1" x="0" y="-0" width="28.48" height="28.48"/>
 </g>
</svg>
