<?xml version="1.0" encoding="UTF-8"?>
<!DOCTYPE svg PUBLIC "-//W3C//DTD SVG 1.1//EN" "http://www.w3.org/Graphics/SVG/1.1/DTD/svg11.dtd">
<!-- Creator: CorelDRAW 2017 -->
<svg xmlns="http://www.w3.org/2000/svg" xml:space="preserve" width="1802px" height="1200px" version="1.1" style="shape-rendering:geometricPrecision; text-rendering:geometricPrecision; image-rendering:optimizeQuality; fill-rule:evenodd; clip-rule:evenodd"
viewBox="0 0 1177.16 783.87"
 xmlns:xlink="http://www.w3.org/1999/xlink">
 <defs>
  <style type="text/css">
   <![CDATA[
    .fil0 {fill:none}
    .fil1 {fill:#2B496C}
   ]]>
  </style>
 </defs>
 <g id="Слой_x0020_1">
  <metadata id="CorelCorpID_0Corel-Layer"/>
  <g id="_1873136828176">
   <g>
    <rect class="fil0" width="391.93" height="391.93"/>
    <path class="fil1" d="M182.02 333.6c-5.46,-20.08 23.32,-26.43 27.91,-8.5 5.08,19.85 -23.56,24.55 -27.91,8.5zm113.46 -269.28c6.39,4.28 4.13,10.69 4.13,25.15l0 181.99c0,10 2.1,21.21 -3.76,26.82 -8.45,3.3 -138.91,1.29 -159.81,1.3 -47.59,0.03 -43.7,9.03 -43.72,-37l0 -161.27c0.02,-46.81 -5.56,-38.67 42.24,-38.67 19.97,0 154.46,-2.76 160.92,1.68zm-203.4 -29.92c-21.42,4.88 -29.34,19.16 -29.26,44.72l0.02 221.93c0,27.11 0.72,44.08 20.64,53.93 13.52,6.68 52.55,3.57 70.31,3.57 20.67,0 136.81,1.45 147.1,-0.87 22.83,-5.13 28.25,-24.33 28.22,-44.79l-0.01 -221.94c0.01,-66.47 -21.85,-57.63 -90.96,-57.68 -24.66,-0.02 -49.33,0.01 -73.99,-0.01 -16.64,-0.01 -58.66,-1.92 -72.07,1.14z"/>
   </g>
   <g>
    <rect class="fil0" x="391.91" width="391.93" height="391.93"/>
    <path class="fil1" d="M575.08 91.62c32.01,-4.71 60.94,8.02 79.41,23.01 45.44,36.9 51.01,104.46 14.01,148.58 -36.6,43.66 -101.92,51.35 -147.18,14.06 -67.79,-55.84 -43.05,-171.41 53.76,-185.65zm-25.09 -12c-12.99,-3.12 -49.19,-18.5 -58.92,-16.2 -3.63,8.91 -1.33,45.06 -1.72,60.09 -10.69,7.48 -52,12.92 -56.6,21.9 -1.54,4.69 11.14,19.85 15.2,25.4l17.82 25.15c-2.18,4.13 -5.53,7.99 -8.6,12.19 -2.86,3.92 -5.71,8.03 -8.82,12.21 -23,30.88 -22.26,26.56 11.62,37.64 9.61,3.15 19.34,6.62 29.18,9.48 0.55,11.07 -2,56.74 2.5,60.48 6.72,3.61 48.02,-13.5 58.34,-15.74 6.69,5.14 31.07,46.49 37.34,47.04 8.11,0.71 29.49,-40.15 38.51,-47.04 14.6,3.17 53.28,19.97 58.34,15.72 5.3,-6.67 1.18,-48.57 2.49,-60.46 9.83,-2.86 19.57,-6.33 29.18,-9.48 26.13,-8.54 34.45,-6.56 20.94,-24.76l-26.73 -37.28 26.13 -36.7c14.59,-19.25 6.7,-17.36 -43.18,-32.89 -8.47,-2.64 -6.68,-1.65 -6.66,-21.56 0.01,-10.06 1.16,-34.65 -1.6,-41.36 -9.62,-2.37 -46.06,13.12 -58.91,16.17 -3.84,-3.33 -14.38,-19.19 -17.76,-23.64 -24.1,-31.72 -17.48,-30.25 -39.82,-0.65 -3.12,4.13 -5.81,8.21 -8.81,12.23l-6.38 8.76c-0.22,0.28 -0.89,1.08 -1.13,1.34 -1.14,1.28 -0.83,1 -1.95,1.96z"/>
   </g>
   <rect class="fil0" x="783.7" width="391.93" height="391.93"/>
   <g>
    <path class="fil1" d="M998.99 81.22c67.8,-9.11 122.37,41.55 129.64,98.75 8.9,69.97 -40.13,121.54 -99,130.4 -48.28,7.27 -92.45,-17.45 -115.71,-55.99 -24.58,-40.73 -19.18,-99.83 10.65,-132.05 7.59,-8.19 12.05,-14.01 22.71,-20.93 2.74,-1.78 5.05,-3.52 8.17,-5.44 12.46,-7.67 26.57,-12.46 43.54,-14.74zm-147.69 131.11c8.27,89.86 92.2,156.88 178.34,145.88 29.02,-3.71 39.32,-7.55 62.74,-19.04 52.3,-25.67 90.36,-92.03 84.11,-159.53 -7.81,-84.3 -84.09,-155.47 -178.8,-146.3 -85.1,8.25 -155.19,83.44 -146.39,178.99z"/>
    <path class="fil1" d="M1013.93 195.34l-36.14 0.64c-16.6,-0.1 -18.32,-2.34 -18.34,16.35 -0.01,8.38 1.8,10.71 10.17,10.71l61.3 0c8.39,0 10.17,-2.31 10.17,-10.71l0 -87.18c0,-12.55 -6.08,-11.78 -18.43,-10.97 -11.86,0.78 -8.74,10.3 -8.72,21.87 0.04,19.76 0.03,39.53 -0.01,59.29z"/>
   </g>
  </g>
  <g id="_1873136831632">
   <g>
    <rect class="fil0" x="783.88" y="391.93" width="391.93" height="391.93"/>
    <path class="fil1" d="M877.02 488.15c3.57,2.42 10.64,41.95 12.07,48.68 2.44,11.52 21.48,95.01 20.42,99.35 -1.48,6.03 -8.74,14.2 -9.72,21.44 -1.42,10.42 5.69,12.15 13.98,13.43l177.51 0c6.85,-0.93 12.5,-1.96 13.73,-9.14 1.61,-9.33 -5.49,-13.38 -13.77,-13.6 -48.61,-1.29 -111.37,0.23 -161.63,0.02 4.93,-12.4 4.63,-10.04 1.7,-24.29 40.6,-3.01 83.98,-9.69 124.66,-14.34 84.06,-9.6 72.38,5.64 72.38,-67.67 0,-38.52 5.29,-53.67 -16.52,-53.75l-209.92 0.03c-1.75,-13.27 -2.68,-22.58 -16.8,-22.9 -12.78,-0.29 -28.72,-0.56 -41.35,0.05 -14.78,0.71 -16.93,16.35 -6.51,21.37 5.21,2.51 32.06,1.32 39.77,1.32zm58.7 183.05c-10.92,0 -19.76,8.84 -19.76,19.75 0,10.91 8.84,19.76 19.76,19.76 10.91,0 19.75,-8.85 19.75,-19.76 0,-10.91 -8.84,-19.75 -19.75,-19.75zm118.95 0c-10.91,0 -19.75,8.84 -19.75,19.75 0,10.91 8.84,19.76 19.75,19.76 10.91,0 19.76,-8.85 19.76,-19.76 0,-10.91 -8.85,-19.75 -19.76,-19.75z"/>
   </g>
   <g>
    <g>
     <rect class="fil0" x="391.96" y="391.93" width="391.93" height="391.93"/>
     <path class="fil1" d="M548.75 538.94c5.96,11.92 16.24,5.62 28.99,8.72l0 29.73c-7.46,1.55 -29.35,0.47 -38.34,0.47 -66.64,0.03 -63.9,-4.15 -63.8,50.61 -13.14,2.63 -24.12,-2.81 -29.38,9.4 -2.24,5.2 -1.27,29.53 -1.27,37.03 0,40.55 1.82,35.62 41.33,35.62 39.53,0 40.31,4.02 40.31,-36.64 0.01,-7.84 1.13,-31.05 -1.67,-36.63 -5.84,-11.66 -16.09,-6.15 -28.97,-8.79l-0.03 -29.73c4.96,-1.2 76.88,-1.2 81.82,0l0.01 29.74c-13.14,2.63 -24.16,-2.85 -29.33,9.45 -2.32,5.51 -1.33,29.24 -1.33,36.98 0.01,40.55 1.84,35.62 41.34,35.62 39.54,0 40.31,4.02 40.31,-36.64 0,-7.83 1.12,-31.06 -1.66,-36.63 -5.83,-11.65 -16.11,-6.15 -28.98,-8.79l-0.03 -29.73c4.96,-1.2 76.88,-1.2 81.82,0l0 29.74c-13.13,2.63 -24.19,-2.84 -29.33,9.45 -2.32,5.53 -1.32,29.23 -1.32,36.98 0.01,40.55 1.82,35.62 41.34,35.62 39.54,0 40.31,4.02 40.31,-36.64 0,-7.85 1.12,-31.03 -1.67,-36.63 -5.81,-11.65 -16.11,-6.15 -28.97,-8.79 -0.03,-27.65 5.75,-50.66 -26.01,-50.6 -11.15,0.02 -69.99,0.77 -76.14,-0.47l-0.03 -29.73c13.12,-3.18 23.95,3.25 29.35,-9.41 2.3,-5.4 1.32,-29.35 1.32,-37 0,-12.98 2.46,-26.98 -6.36,-32.94 -7.08,-4.77 -25.32,-2.82 -34.97,-2.81 -39.48,0.04 -40.34,-3.82 -40.32,36.77 0.01,7.98 -1.21,30.93 1.66,36.67z"/>
    </g>
    <g>
     <rect class="fil0" y="391.93" width="391.93" height="391.93"/>
     <g>
      <path class="fil1" d="M335.21 689.24c-11.09,1.75 -235.84,0.41 -261.76,0.43 -11.72,0.01 -19.9,3.37 -19.9,-9.09 -0.02,-57.2 0.9,-117.02 0.02,-173.6 5.68,-1.39 278.94,-1.39 284.62,0 -0.77,52.83 -0.05,109.73 -0.03,163.36 0,8.67 1.53,14.14 -2.95,18.9zm-281.83 -222.64c-23.69,5.85 -20.03,25.91 -20.03,51.13l0 142.44c0,9.05 -1.17,26.63 2,34.07 8.87,20.79 32.69,15.65 55.37,15.65l177.81 0c15.21,0 58.28,1.91 70.36,-0.77 8.82,-1.96 15.44,-8.81 18.11,-16.32 2.92,-8.21 1.42,-93.39 1.41,-105.89 0,-23.74 0,-47.48 0,-71.22 0,-15.38 5.14,-46.16 -21.97,-49.53 -8.94,-1.11 -194.93,-0.33 -213.21,-0.32 -14,0.01 -59.68,-1.75 -69.85,0.76z"/>
      <path class="fil1" d="M95.55 593.53c-24.11,4.77 -26.34,50.75 -14.7,61.27 7.98,7.22 27.17,4.21 39.33,4.21 34.84,0 59.61,8.52 54.59,-33.41 -1.62,-13.49 -5.32,-25 -14.55,-29.95 -14.69,-7.89 -11.62,4.99 -31,7.16 -23.05,2.58 -23.93,-11.21 -33.67,-9.28z"/>
      <path class="fil1" d="M118.52 537.88c-39.69,8.5 -26.69,68.04 13.03,59.25 14.51,-3.21 26.65,-17.48 22.86,-36.39 -2.89,-14.37 -17.75,-26.75 -35.89,-22.86z"/>
      <path class="fil1" d="M195.91 636.77c0,8.62 -0.82,12.07 7.59,12.07l106.17 0c8.91,0 8.09,-3.21 8.1,-12.07 0.02,-10.93 -6.41,-8.16 -22.83,-8.14l-83.31 0c-9.85,0.01 -15.71,-2.56 -15.72,8.14z"/>
      <path class="fil1" d="M195.91 555.37c0.01,8.65 -0.81,12.07 7.59,12.07l106.68 0c8.39,0 7.59,-3.39 7.59,-12.07 0,-10.53 -4.08,-8.12 -21.81,-8.13l-85.35 0c-9.52,-0.01 -14.71,-2.25 -14.7,8.13z"/>
      <path class="fil1" d="M195.91 596.07c-0.01,16.32 -1.12,12.07 53.31,12.07 8.41,0 7.59,-3.44 7.59,-12.07 0,-10.89 -6.61,-8.16 -16.73,-8.14l-33.53 0c-7.97,0.02 -10.63,-0.64 -10.64,8.14z"/>
      <path class="fil1" d="M277.19 596.07c0.01,14.87 -1.34,12.07 32.99,12.07 8.41,0 7.59,-3.43 7.59,-12.07 0,-10.59 -4.34,-8.18 -23.84,-8.13 -10.08,0.02 -16.75,-2.81 -16.74,8.13z"/>
     </g>
    </g>
   </g>
  </g>
 </g>
</svg>
