<?xml version="1.0" encoding="UTF-8"?>
<!DOCTYPE svg PUBLIC "-//W3C//DTD SVG 1.1//EN" "http://www.w3.org/Graphics/SVG/1.1/DTD/svg11.dtd">
<!-- Creator: CorelDRAW 2017 -->
<svg xmlns="http://www.w3.org/2000/svg" xml:space="preserve" width="320.915mm" height="227.911mm" version="1.1" style="shape-rendering:geometricPrecision; text-rendering:geometricPrecision; image-rendering:optimizeQuality; fill-rule:evenodd; clip-rule:evenodd"
viewBox="0 0 6775.6 4811.97"
 xmlns:xlink="http://www.w3.org/1999/xlink">
 <defs>
  <style type="text/css">
   <![CDATA[
    .str0 {stroke:#F26D7E;stroke-width:4.22;stroke-miterlimit:22.9256}
    .fil0 {fill:none}
   ]]>
  </style>
 </defs>
 <g id="Слой_x0020_1">
  <metadata id="CorelCorpID_0Corel-Layer"/>
  <rect class="fil0 str0" transform="matrix(1.0044 -0.707107 1.0044 0.707107 4.7161 157.631)" width="210.94" height="210.94"/>
  <rect class="fil0 str0" transform="matrix(1.0044 -0.707107 1.0044 0.707107 426.012 157.631)" width="210.94" height="210.94"/>
  <rect class="fil0 str0" transform="matrix(1.0044 -0.707107 1.0044 0.707107 851.32 157.631)" width="210.94" height="210.94"/>
  <rect class="fil0 str0" transform="matrix(1.0044 -0.707107 1.0044 0.707107 1272.62 157.631)" width="210.94" height="210.94"/>
  <rect class="fil0 str0" transform="matrix(1.0044 -0.707107 1.0044 0.707107 1696.55 157.631)" width="210.94" height="210.94"/>
  <rect class="fil0 str0" transform="matrix(1.0044 -0.707107 1.0044 0.707107 2117.85 157.631)" width="210.94" height="210.94"/>
  <rect class="fil0 str0" transform="matrix(1.0044 -0.707107 1.0044 0.707107 2543.16 157.631)" width="210.94" height="210.94"/>
  <rect class="fil0 str0" transform="matrix(1.0044 -0.707107 1.0044 0.707107 2964.45 157.631)" width="210.94" height="210.94"/>
  <rect class="fil0 str0" transform="matrix(1.0044 -0.707107 1.0044 0.707107 3386.75 157.631)" width="210.94" height="210.94"/>
  <rect class="fil0 str0" transform="matrix(1.0044 -0.707107 1.0044 0.707107 3808.05 157.631)" width="210.94" height="210.94"/>
  <rect class="fil0 str0" transform="matrix(1.0044 -0.707107 1.0044 0.707107 4233.35 157.631)" width="210.94" height="210.94"/>
  <rect class="fil0 str0" transform="matrix(1.0044 -0.707107 1.0044 0.707107 4654.65 157.631)" width="210.94" height="210.94"/>
  <rect class="fil0 str0" transform="matrix(1.0044 -0.707107 1.0044 0.707107 5078.59 157.631)" width="210.94" height="210.94"/>
  <rect class="fil0 str0" transform="matrix(1.0044 -0.707107 1.0044 0.707107 5499.88 157.631)" width="210.94" height="210.94"/>
  <rect class="fil0 str0" transform="matrix(1.0044 -0.707107 1.0044 0.707107 5925.19 157.631)" width="210.94" height="210.94"/>
  <rect class="fil0 str0" transform="matrix(1.0044 -0.707107 1.0044 0.707107 6346.49 157.631)" width="210.94" height="210.94"/>
  <rect class="fil0 str0" transform="matrix(1.0044 -0.707107 1.0044 0.707107 4.7161 457.65)" width="210.94" height="210.94"/>
  <rect class="fil0 str0" transform="matrix(1.0044 -0.707107 1.0044 0.707107 426.012 457.65)" width="210.94" height="210.94"/>
  <rect class="fil0 str0" transform="matrix(1.0044 -0.707107 1.0044 0.707107 851.32 457.65)" width="210.94" height="210.94"/>
  <rect class="fil0 str0" transform="matrix(1.0044 -0.707107 1.0044 0.707107 1272.62 457.65)" width="210.94" height="210.94"/>
  <rect class="fil0 str0" transform="matrix(1.0044 -0.707107 1.0044 0.707107 1696.55 457.65)" width="210.94" height="210.94"/>
  <rect class="fil0 str0" transform="matrix(1.0044 -0.707107 1.0044 0.707107 2117.85 457.65)" width="210.94" height="210.94"/>
  <rect class="fil0 str0" transform="matrix(1.0044 -0.707107 1.0044 0.707107 2543.16 457.65)" width="210.94" height="210.94"/>
  <rect class="fil0 str0" transform="matrix(1.0044 -0.707107 1.0044 0.707107 2964.45 457.65)" width="210.94" height="210.94"/>
  <rect class="fil0 str0" transform="matrix(1.0044 -0.707107 1.0044 0.707107 3386.75 457.65)" width="210.94" height="210.94"/>
  <rect class="fil0 str0" transform="matrix(1.0044 -0.707107 1.0044 0.707107 3808.05 457.65)" width="210.94" height="210.94"/>
  <rect class="fil0 str0" transform="matrix(1.0044 -0.707107 1.0044 0.707107 4233.35 457.65)" width="210.94" height="210.94"/>
  <rect class="fil0 str0" transform="matrix(1.0044 -0.707107 1.0044 0.707107 4654.65 457.65)" width="210.94" height="210.94"/>
  <rect class="fil0 str0" transform="matrix(1.0044 -0.707107 1.0044 0.707107 5078.59 457.65)" width="210.94" height="210.94"/>
  <rect class="fil0 str0" transform="matrix(1.0044 -0.707107 1.0044 0.707107 5499.88 457.65)" width="210.94" height="210.94"/>
  <rect class="fil0 str0" transform="matrix(1.0044 -0.707107 1.0044 0.707107 5925.19 457.65)" width="210.94" height="210.94"/>
  <rect class="fil0 str0" transform="matrix(1.0044 -0.707107 1.0044 0.707107 6346.49 457.65)" width="210.94" height="210.94"/>
  <rect class="fil0 str0" transform="matrix(1.0044 -0.707107 1.0044 0.707107 4.7161 757.029)" width="210.94" height="210.94"/>
  <rect class="fil0 str0" transform="matrix(1.0044 -0.707107 1.0044 0.707107 426.012 757.029)" width="210.94" height="210.94"/>
  <rect class="fil0 str0" transform="matrix(1.0044 -0.707107 1.0044 0.707107 851.32 757.029)" width="210.94" height="210.94"/>
  <rect class="fil0 str0" transform="matrix(1.0044 -0.707107 1.0044 0.707107 1272.62 757.029)" width="210.94" height="210.94"/>
  <rect class="fil0 str0" transform="matrix(1.0044 -0.707107 1.0044 0.707107 1696.55 757.029)" width="210.94" height="210.94"/>
  <rect class="fil0 str0" transform="matrix(1.0044 -0.707107 1.0044 0.707107 2117.85 757.029)" width="210.94" height="210.94"/>
  <rect class="fil0 str0" transform="matrix(1.0044 -0.707107 1.0044 0.707107 2543.16 757.029)" width="210.94" height="210.94"/>
  <rect class="fil0 str0" transform="matrix(1.0044 -0.707107 1.0044 0.707107 2964.45 757.029)" width="210.94" height="210.94"/>
  <rect class="fil0 str0" transform="matrix(1.0044 -0.707107 1.0044 0.707107 3386.75 757.029)" width="210.94" height="210.94"/>
  <rect class="fil0 str0" transform="matrix(1.0044 -0.707107 1.0044 0.707107 3808.05 757.029)" width="210.94" height="210.94"/>
  <rect class="fil0 str0" transform="matrix(1.0044 -0.707107 1.0044 0.707107 4233.35 757.029)" width="210.94" height="210.94"/>
  <rect class="fil0 str0" transform="matrix(1.0044 -0.707107 1.0044 0.707107 4654.65 757.029)" width="210.94" height="210.94"/>
  <rect class="fil0 str0" transform="matrix(1.0044 -0.707107 1.0044 0.707107 5078.59 757.029)" width="210.94" height="210.94"/>
  <rect class="fil0 str0" transform="matrix(1.0044 -0.707107 1.0044 0.707107 5499.88 757.029)" width="210.94" height="210.94"/>
  <rect class="fil0 str0" transform="matrix(1.0044 -0.707107 1.0044 0.707107 5925.19 757.029)" width="210.94" height="210.94"/>
  <rect class="fil0 str0" transform="matrix(1.0044 -0.707107 1.0044 0.707107 6346.49 757.029)" width="210.94" height="210.94"/>
  <rect class="fil0 str0" transform="matrix(1.0044 -0.707107 1.0044 0.707107 4.7161 1057.05)" width="210.94" height="210.94"/>
  <rect class="fil0 str0" transform="matrix(1.0044 -0.707107 1.0044 0.707107 426.012 1057.05)" width="210.94" height="210.94"/>
  <rect class="fil0 str0" transform="matrix(1.0044 -0.707107 1.0044 0.707107 851.32 1057.05)" width="210.94" height="210.94"/>
  <rect class="fil0 str0" transform="matrix(1.0044 -0.707107 1.0044 0.707107 1272.62 1057.05)" width="210.94" height="210.94"/>
  <rect class="fil0 str0" transform="matrix(1.0044 -0.707107 1.0044 0.707107 1696.55 1057.05)" width="210.94" height="210.94"/>
  <rect class="fil0 str0" transform="matrix(1.0044 -0.707107 1.0044 0.707107 2117.85 1057.05)" width="210.94" height="210.94"/>
  <rect class="fil0 str0" transform="matrix(1.0044 -0.707107 1.0044 0.707107 2543.16 1057.05)" width="210.94" height="210.94"/>
  <rect class="fil0 str0" transform="matrix(1.0044 -0.707107 1.0044 0.707107 2964.45 1057.05)" width="210.94" height="210.94"/>
  <rect class="fil0 str0" transform="matrix(1.0044 -0.707107 1.0044 0.707107 3386.75 1057.05)" width="210.94" height="210.94"/>
  <rect class="fil0 str0" transform="matrix(1.0044 -0.707107 1.0044 0.707107 3808.05 1057.05)" width="210.94" height="210.94"/>
  <rect class="fil0 str0" transform="matrix(1.0044 -0.707107 1.0044 0.707107 4233.35 1057.05)" width="210.94" height="210.94"/>
  <rect class="fil0 str0" transform="matrix(1.0044 -0.707107 1.0044 0.707107 4654.65 1057.05)" width="210.94" height="210.94"/>
  <rect class="fil0 str0" transform="matrix(1.0044 -0.707107 1.0044 0.707107 5078.59 1057.05)" width="210.94" height="210.94"/>
  <rect class="fil0 str0" transform="matrix(1.0044 -0.707107 1.0044 0.707107 5499.88 1057.05)" width="210.94" height="210.94"/>
  <rect class="fil0 str0" transform="matrix(1.0044 -0.707107 1.0044 0.707107 5925.19 1057.05)" width="210.94" height="210.94"/>
  <rect class="fil0 str0" transform="matrix(1.0044 -0.707107 1.0044 0.707107 6346.49 1057.05)" width="210.94" height="210.94"/>
  <rect class="fil0 str0" transform="matrix(1.0044 -0.707107 1.0044 0.707107 3.66887 1357.53)" width="210.94" height="210.94"/>
  <rect class="fil0 str0" transform="matrix(1.0044 -0.707107 1.0044 0.707107 424.965 1357.53)" width="210.94" height="210.94"/>
  <rect class="fil0 str0" transform="matrix(1.0044 -0.707107 1.0044 0.707107 850.273 1357.53)" width="210.94" height="210.94"/>
  <rect class="fil0 str0" transform="matrix(1.0044 -0.707107 1.0044 0.707107 1271.57 1357.53)" width="210.94" height="210.94"/>
  <rect class="fil0 str0" transform="matrix(1.0044 -0.707107 1.0044 0.707107 1695.5 1357.53)" width="210.94" height="210.94"/>
  <rect class="fil0 str0" transform="matrix(1.0044 -0.707107 1.0044 0.707107 2116.8 1357.53)" width="210.94" height="210.94"/>
  <rect class="fil0 str0" transform="matrix(1.0044 -0.707107 1.0044 0.707107 2542.11 1357.53)" width="210.94" height="210.94"/>
  <rect class="fil0 str0" transform="matrix(1.0044 -0.707107 1.0044 0.707107 2963.4 1357.53)" width="210.94" height="210.94"/>
  <rect class="fil0 str0" transform="matrix(1.0044 -0.707107 1.0044 0.707107 3385.7 1357.53)" width="210.94" height="210.94"/>
  <rect class="fil0 str0" transform="matrix(1.0044 -0.707107 1.0044 0.707107 3807 1357.53)" width="210.94" height="210.94"/>
  <rect class="fil0 str0" transform="matrix(1.0044 -0.707107 1.0044 0.707107 4232.31 1357.53)" width="210.94" height="210.94"/>
  <rect class="fil0 str0" transform="matrix(1.0044 -0.707107 1.0044 0.707107 4653.6 1357.53)" width="210.94" height="210.94"/>
  <rect class="fil0 str0" transform="matrix(1.0044 -0.707107 1.0044 0.707107 5077.54 1357.53)" width="210.94" height="210.94"/>
  <rect class="fil0 str0" transform="matrix(1.0044 -0.707107 1.0044 0.707107 5498.83 1357.53)" width="210.94" height="210.94"/>
  <rect class="fil0 str0" transform="matrix(1.0044 -0.707107 1.0044 0.707107 5924.14 1357.53)" width="210.94" height="210.94"/>
  <rect class="fil0 str0" transform="matrix(1.0044 -0.707107 1.0044 0.707107 6345.44 1357.53)" width="210.94" height="210.94"/>
  <rect class="fil0 str0" transform="matrix(1.0044 -0.707107 1.0044 0.707107 3.66887 1657.55)" width="210.94" height="210.94"/>
  <rect class="fil0 str0" transform="matrix(1.0044 -0.707107 1.0044 0.707107 424.965 1657.55)" width="210.94" height="210.94"/>
  <rect class="fil0 str0" transform="matrix(1.0044 -0.707107 1.0044 0.707107 850.273 1657.55)" width="210.94" height="210.94"/>
  <rect class="fil0 str0" transform="matrix(1.0044 -0.707107 1.0044 0.707107 1271.57 1657.55)" width="210.94" height="210.94"/>
  <rect class="fil0 str0" transform="matrix(1.0044 -0.707107 1.0044 0.707107 1695.5 1657.55)" width="210.94" height="210.94"/>
  <rect class="fil0 str0" transform="matrix(1.0044 -0.707107 1.0044 0.707107 2116.8 1657.55)" width="210.94" height="210.94"/>
  <rect class="fil0 str0" transform="matrix(1.0044 -0.707107 1.0044 0.707107 2542.11 1657.55)" width="210.94" height="210.94"/>
  <rect class="fil0 str0" transform="matrix(1.0044 -0.707107 1.0044 0.707107 2963.4 1657.55)" width="210.94" height="210.94"/>
  <rect class="fil0 str0" transform="matrix(1.0044 -0.707107 1.0044 0.707107 3385.7 1657.55)" width="210.94" height="210.94"/>
  <rect class="fil0 str0" transform="matrix(1.0044 -0.707107 1.0044 0.707107 3807 1657.55)" width="210.94" height="210.94"/>
  <rect class="fil0 str0" transform="matrix(1.0044 -0.707107 1.0044 0.707107 4232.31 1657.55)" width="210.94" height="210.94"/>
  <rect class="fil0 str0" transform="matrix(1.0044 -0.707107 1.0044 0.707107 4653.6 1657.55)" width="210.94" height="210.94"/>
  <rect class="fil0 str0" transform="matrix(1.0044 -0.707107 1.0044 0.707107 5077.54 1657.55)" width="210.94" height="210.94"/>
  <rect class="fil0 str0" transform="matrix(1.0044 -0.707107 1.0044 0.707107 5498.83 1657.55)" width="210.94" height="210.94"/>
  <rect class="fil0 str0" transform="matrix(1.0044 -0.707107 1.0044 0.707107 5924.14 1657.55)" width="210.94" height="210.94"/>
  <rect class="fil0 str0" transform="matrix(1.0044 -0.707107 1.0044 0.707107 6345.44 1657.55)" width="210.94" height="210.94"/>
  <rect class="fil0 str0" transform="matrix(1.0044 -0.707107 1.0044 0.707107 3.66887 1956.93)" width="210.94" height="210.94"/>
  <rect class="fil0 str0" transform="matrix(1.0044 -0.707107 1.0044 0.707107 424.965 1956.93)" width="210.94" height="210.94"/>
  <rect class="fil0 str0" transform="matrix(1.0044 -0.707107 1.0044 0.707107 850.273 1956.93)" width="210.94" height="210.94"/>
  <rect class="fil0 str0" transform="matrix(1.0044 -0.707107 1.0044 0.707107 1271.57 1956.93)" width="210.94" height="210.94"/>
  <rect class="fil0 str0" transform="matrix(1.0044 -0.707107 1.0044 0.707107 1695.5 1956.93)" width="210.94" height="210.94"/>
  <rect class="fil0 str0" transform="matrix(1.0044 -0.707107 1.0044 0.707107 2116.8 1956.93)" width="210.94" height="210.94"/>
  <rect class="fil0 str0" transform="matrix(1.0044 -0.707107 1.0044 0.707107 2542.11 1956.93)" width="210.94" height="210.94"/>
  <rect class="fil0 str0" transform="matrix(1.0044 -0.707107 1.0044 0.707107 2963.4 1956.93)" width="210.94" height="210.94"/>
  <rect class="fil0 str0" transform="matrix(1.0044 -0.707107 1.0044 0.707107 3385.7 1956.93)" width="210.94" height="210.94"/>
  <rect class="fil0 str0" transform="matrix(1.0044 -0.707107 1.0044 0.707107 3807 1956.93)" width="210.94" height="210.94"/>
  <rect class="fil0 str0" transform="matrix(1.0044 -0.707107 1.0044 0.707107 4232.31 1956.93)" width="210.94" height="210.94"/>
  <rect class="fil0 str0" transform="matrix(1.0044 -0.707107 1.0044 0.707107 4653.6 1956.93)" width="210.94" height="210.94"/>
  <rect class="fil0 str0" transform="matrix(1.0044 -0.707107 1.0044 0.707107 5077.54 1956.93)" width="210.94" height="210.94"/>
  <rect class="fil0 str0" transform="matrix(1.0044 -0.707107 1.0044 0.707107 5498.83 1956.93)" width="210.94" height="210.94"/>
  <rect class="fil0 str0" transform="matrix(1.0044 -0.707107 1.0044 0.707107 5924.14 1956.93)" width="210.94" height="210.94"/>
  <rect class="fil0 str0" transform="matrix(1.0044 -0.707107 1.0044 0.707107 6345.44 1956.93)" width="210.94" height="210.94"/>
  <rect class="fil0 str0" transform="matrix(1.0044 -0.707107 1.0044 0.707107 3.66887 2256.95)" width="210.94" height="210.94"/>
  <rect class="fil0 str0" transform="matrix(1.0044 -0.707107 1.0044 0.707107 424.965 2256.95)" width="210.94" height="210.94"/>
  <rect class="fil0 str0" transform="matrix(1.0044 -0.707107 1.0044 0.707107 850.273 2256.95)" width="210.94" height="210.94"/>
  <rect class="fil0 str0" transform="matrix(1.0044 -0.707107 1.0044 0.707107 1271.57 2256.95)" width="210.94" height="210.94"/>
  <rect class="fil0 str0" transform="matrix(1.0044 -0.707107 1.0044 0.707107 1695.5 2256.95)" width="210.94" height="210.94"/>
  <rect class="fil0 str0" transform="matrix(1.0044 -0.707107 1.0044 0.707107 2116.8 2256.95)" width="210.94" height="210.94"/>
  <rect class="fil0 str0" transform="matrix(1.0044 -0.707107 1.0044 0.707107 2542.11 2256.95)" width="210.94" height="210.94"/>
  <rect class="fil0 str0" transform="matrix(1.0044 -0.707107 1.0044 0.707107 2963.4 2256.95)" width="210.94" height="210.94"/>
  <rect class="fil0 str0" transform="matrix(1.0044 -0.707107 1.0044 0.707107 3385.7 2256.95)" width="210.94" height="210.94"/>
  <rect class="fil0 str0" transform="matrix(1.0044 -0.707107 1.0044 0.707107 3807 2256.95)" width="210.94" height="210.94"/>
  <rect class="fil0 str0" transform="matrix(1.0044 -0.707107 1.0044 0.707107 4232.31 2256.95)" width="210.94" height="210.94"/>
  <rect class="fil0 str0" transform="matrix(1.0044 -0.707107 1.0044 0.707107 4653.6 2256.95)" width="210.94" height="210.94"/>
  <rect class="fil0 str0" transform="matrix(1.0044 -0.707107 1.0044 0.707107 5077.54 2256.95)" width="210.94" height="210.94"/>
  <rect class="fil0 str0" transform="matrix(1.0044 -0.707107 1.0044 0.707107 5498.83 2256.95)" width="210.94" height="210.94"/>
  <rect class="fil0 str0" transform="matrix(1.0044 -0.707107 1.0044 0.707107 5924.14 2256.95)" width="210.94" height="210.94"/>
  <rect class="fil0 str0" transform="matrix(1.0044 -0.707107 1.0044 0.707107 6345.44 2256.95)" width="210.94" height="210.94"/>
  <rect class="fil0 str0" transform="matrix(1.0044 -0.707107 1.0044 0.707107 4.7161 2556.41)" width="210.94" height="210.94"/>
  <rect class="fil0 str0" transform="matrix(1.0044 -0.707107 1.0044 0.707107 426.012 2556.41)" width="210.94" height="210.94"/>
  <rect class="fil0 str0" transform="matrix(1.0044 -0.707107 1.0044 0.707107 851.32 2556.41)" width="210.94" height="210.94"/>
  <rect class="fil0 str0" transform="matrix(1.0044 -0.707107 1.0044 0.707107 1272.62 2556.41)" width="210.94" height="210.94"/>
  <rect class="fil0 str0" transform="matrix(1.0044 -0.707107 1.0044 0.707107 1696.55 2556.41)" width="210.94" height="210.94"/>
  <rect class="fil0 str0" transform="matrix(1.0044 -0.707107 1.0044 0.707107 2117.85 2556.41)" width="210.94" height="210.94"/>
  <rect class="fil0 str0" transform="matrix(1.0044 -0.707107 1.0044 0.707107 2543.16 2556.41)" width="210.94" height="210.94"/>
  <rect class="fil0 str0" transform="matrix(1.0044 -0.707107 1.0044 0.707107 2964.45 2556.41)" width="210.94" height="210.94"/>
  <rect class="fil0 str0" transform="matrix(1.0044 -0.707107 1.0044 0.707107 3386.75 2556.41)" width="210.94" height="210.94"/>
  <rect class="fil0 str0" transform="matrix(1.0044 -0.707107 1.0044 0.707107 3808.05 2556.41)" width="210.94" height="210.94"/>
  <rect class="fil0 str0" transform="matrix(1.0044 -0.707107 1.0044 0.707107 4233.35 2556.41)" width="210.94" height="210.94"/>
  <rect class="fil0 str0" transform="matrix(1.0044 -0.707107 1.0044 0.707107 4654.65 2556.41)" width="210.94" height="210.94"/>
  <rect class="fil0 str0" transform="matrix(1.0044 -0.707107 1.0044 0.707107 5078.59 2556.41)" width="210.94" height="210.94"/>
  <rect class="fil0 str0" transform="matrix(1.0044 -0.707107 1.0044 0.707107 5499.88 2556.41)" width="210.94" height="210.94"/>
  <rect class="fil0 str0" transform="matrix(1.0044 -0.707107 1.0044 0.707107 5925.19 2556.41)" width="210.94" height="210.94"/>
  <rect class="fil0 str0" transform="matrix(1.0044 -0.707107 1.0044 0.707107 6346.49 2556.41)" width="210.94" height="210.94"/>
  <rect class="fil0 str0" transform="matrix(1.0044 -0.707107 1.0044 0.707107 4.7161 2856.43)" width="210.94" height="210.94"/>
  <rect class="fil0 str0" transform="matrix(1.0044 -0.707107 1.0044 0.707107 426.012 2856.43)" width="210.94" height="210.94"/>
  <rect class="fil0 str0" transform="matrix(1.0044 -0.707107 1.0044 0.707107 851.32 2856.43)" width="210.94" height="210.94"/>
  <rect class="fil0 str0" transform="matrix(1.0044 -0.707107 1.0044 0.707107 1272.62 2856.43)" width="210.94" height="210.94"/>
  <rect class="fil0 str0" transform="matrix(1.0044 -0.707107 1.0044 0.707107 1696.55 2856.43)" width="210.94" height="210.94"/>
  <rect class="fil0 str0" transform="matrix(1.0044 -0.707107 1.0044 0.707107 2117.85 2856.43)" width="210.94" height="210.94"/>
  <rect class="fil0 str0" transform="matrix(1.0044 -0.707107 1.0044 0.707107 2543.16 2856.43)" width="210.94" height="210.94"/>
  <rect class="fil0 str0" transform="matrix(1.0044 -0.707107 1.0044 0.707107 2964.45 2856.43)" width="210.94" height="210.94"/>
  <rect class="fil0 str0" transform="matrix(1.0044 -0.707107 1.0044 0.707107 3386.75 2856.43)" width="210.94" height="210.94"/>
  <rect class="fil0 str0" transform="matrix(1.0044 -0.707107 1.0044 0.707107 3808.05 2856.43)" width="210.94" height="210.94"/>
  <rect class="fil0 str0" transform="matrix(1.0044 -0.707107 1.0044 0.707107 4233.35 2856.43)" width="210.94" height="210.94"/>
  <rect class="fil0 str0" transform="matrix(1.0044 -0.707107 1.0044 0.707107 4654.65 2856.43)" width="210.94" height="210.94"/>
  <rect class="fil0 str0" transform="matrix(1.0044 -0.707107 1.0044 0.707107 5078.59 2856.43)" width="210.94" height="210.94"/>
  <rect class="fil0 str0" transform="matrix(1.0044 -0.707107 1.0044 0.707107 5499.88 2856.43)" width="210.94" height="210.94"/>
  <rect class="fil0 str0" transform="matrix(1.0044 -0.707107 1.0044 0.707107 5925.19 2856.43)" width="210.94" height="210.94"/>
  <rect class="fil0 str0" transform="matrix(1.0044 -0.707107 1.0044 0.707107 6346.49 2856.43)" width="210.94" height="210.94"/>
  <rect class="fil0 str0" transform="matrix(1.0044 -0.707107 1.0044 0.707107 4.7161 3155.81)" width="210.94" height="210.94"/>
  <rect class="fil0 str0" transform="matrix(1.0044 -0.707107 1.0044 0.707107 426.012 3155.81)" width="210.94" height="210.94"/>
  <rect class="fil0 str0" transform="matrix(1.0044 -0.707107 1.0044 0.707107 851.32 3155.81)" width="210.94" height="210.94"/>
  <rect class="fil0 str0" transform="matrix(1.0044 -0.707107 1.0044 0.707107 1272.62 3155.81)" width="210.94" height="210.94"/>
  <rect class="fil0 str0" transform="matrix(1.0044 -0.707107 1.0044 0.707107 1696.55 3155.81)" width="210.94" height="210.94"/>
  <rect class="fil0 str0" transform="matrix(1.0044 -0.707107 1.0044 0.707107 2117.85 3155.81)" width="210.94" height="210.94"/>
  <rect class="fil0 str0" transform="matrix(1.0044 -0.707107 1.0044 0.707107 2543.16 3155.81)" width="210.94" height="210.94"/>
  <rect class="fil0 str0" transform="matrix(1.0044 -0.707107 1.0044 0.707107 2964.45 3155.81)" width="210.94" height="210.94"/>
  <rect class="fil0 str0" transform="matrix(1.0044 -0.707107 1.0044 0.707107 3386.75 3155.81)" width="210.94" height="210.94"/>
  <rect class="fil0 str0" transform="matrix(1.0044 -0.707107 1.0044 0.707107 3808.05 3155.81)" width="210.94" height="210.94"/>
  <rect class="fil0 str0" transform="matrix(1.0044 -0.707107 1.0044 0.707107 4233.35 3155.81)" width="210.94" height="210.94"/>
  <rect class="fil0 str0" transform="matrix(1.0044 -0.707107 1.0044 0.707107 4654.65 3155.81)" width="210.94" height="210.94"/>
  <rect class="fil0 str0" transform="matrix(1.0044 -0.707107 1.0044 0.707107 5078.59 3155.81)" width="210.94" height="210.94"/>
  <rect class="fil0 str0" transform="matrix(1.0044 -0.707107 1.0044 0.707107 5499.88 3155.81)" width="210.94" height="210.94"/>
  <rect class="fil0 str0" transform="matrix(1.0044 -0.707107 1.0044 0.707107 5925.19 3155.81)" width="210.94" height="210.94"/>
  <rect class="fil0 str0" transform="matrix(1.0044 -0.707107 1.0044 0.707107 6346.49 3155.81)" width="210.94" height="210.94"/>
  <rect class="fil0 str0" transform="matrix(1.0044 -0.707107 1.0044 0.707107 4.7161 3455.83)" width="210.94" height="210.94"/>
  <rect class="fil0 str0" transform="matrix(1.0044 -0.707107 1.0044 0.707107 426.012 3455.83)" width="210.94" height="210.94"/>
  <rect class="fil0 str0" transform="matrix(1.0044 -0.707107 1.0044 0.707107 851.32 3455.83)" width="210.94" height="210.94"/>
  <rect class="fil0 str0" transform="matrix(1.0044 -0.707107 1.0044 0.707107 1272.62 3455.83)" width="210.94" height="210.94"/>
  <rect class="fil0 str0" transform="matrix(1.0044 -0.707107 1.0044 0.707107 1696.55 3455.83)" width="210.94" height="210.94"/>
  <rect class="fil0 str0" transform="matrix(1.0044 -0.707107 1.0044 0.707107 2117.85 3455.83)" width="210.94" height="210.94"/>
  <rect class="fil0 str0" transform="matrix(1.0044 -0.707107 1.0044 0.707107 2543.16 3455.83)" width="210.94" height="210.94"/>
  <rect class="fil0 str0" transform="matrix(1.0044 -0.707107 1.0044 0.707107 2964.45 3455.83)" width="210.94" height="210.94"/>
  <rect class="fil0 str0" transform="matrix(1.0044 -0.707107 1.0044 0.707107 3386.75 3455.83)" width="210.94" height="210.94"/>
  <rect class="fil0 str0" transform="matrix(1.0044 -0.707107 1.0044 0.707107 3808.05 3455.83)" width="210.94" height="210.94"/>
  <rect class="fil0 str0" transform="matrix(1.0044 -0.707107 1.0044 0.707107 4233.35 3455.83)" width="210.94" height="210.94"/>
  <rect class="fil0 str0" transform="matrix(1.0044 -0.707107 1.0044 0.707107 4654.65 3455.83)" width="210.94" height="210.94"/>
  <rect class="fil0 str0" transform="matrix(1.0044 -0.707107 1.0044 0.707107 5078.59 3455.83)" width="210.94" height="210.94"/>
  <rect class="fil0 str0" transform="matrix(1.0044 -0.707107 1.0044 0.707107 5499.88 3455.83)" width="210.94" height="210.94"/>
  <rect class="fil0 str0" transform="matrix(1.0044 -0.707107 1.0044 0.707107 5925.19 3455.83)" width="210.94" height="210.94"/>
  <rect class="fil0 str0" transform="matrix(1.0044 -0.707107 1.0044 0.707107 6346.49 3455.83)" width="210.94" height="210.94"/>
  <rect class="fil0 str0" transform="matrix(1.0044 -0.707107 1.0044 0.707107 3.66887 3756.31)" width="210.94" height="210.94"/>
  <rect class="fil0 str0" transform="matrix(1.0044 -0.707107 1.0044 0.707107 424.965 3756.31)" width="210.94" height="210.94"/>
  <rect class="fil0 str0" transform="matrix(1.0044 -0.707107 1.0044 0.707107 850.273 3756.31)" width="210.94" height="210.94"/>
  <rect class="fil0 str0" transform="matrix(1.0044 -0.707107 1.0044 0.707107 1271.57 3756.31)" width="210.94" height="210.94"/>
  <rect class="fil0 str0" transform="matrix(1.0044 -0.707107 1.0044 0.707107 1695.5 3756.31)" width="210.94" height="210.94"/>
  <rect class="fil0 str0" transform="matrix(1.0044 -0.707107 1.0044 0.707107 2116.8 3756.31)" width="210.94" height="210.94"/>
  <rect class="fil0 str0" transform="matrix(1.0044 -0.707107 1.0044 0.707107 2542.11 3756.31)" width="210.94" height="210.94"/>
  <rect class="fil0 str0" transform="matrix(1.0044 -0.707107 1.0044 0.707107 2963.4 3756.31)" width="210.94" height="210.94"/>
  <rect class="fil0 str0" transform="matrix(1.0044 -0.707107 1.0044 0.707107 3385.7 3756.31)" width="210.94" height="210.94"/>
  <rect class="fil0 str0" transform="matrix(1.0044 -0.707107 1.0044 0.707107 3807 3756.31)" width="210.94" height="210.94"/>
  <rect class="fil0 str0" transform="matrix(1.0044 -0.707107 1.0044 0.707107 4232.31 3756.31)" width="210.94" height="210.94"/>
  <rect class="fil0 str0" transform="matrix(1.0044 -0.707107 1.0044 0.707107 4653.6 3756.31)" width="210.94" height="210.94"/>
  <rect class="fil0 str0" transform="matrix(1.0044 -0.707107 1.0044 0.707107 5077.54 3756.31)" width="210.94" height="210.94"/>
  <rect class="fil0 str0" transform="matrix(1.0044 -0.707107 1.0044 0.707107 5498.83 3756.31)" width="210.94" height="210.94"/>
  <rect class="fil0 str0" transform="matrix(1.0044 -0.707107 1.0044 0.707107 5924.14 3756.31)" width="210.94" height="210.94"/>
  <rect class="fil0 str0" transform="matrix(1.0044 -0.707107 1.0044 0.707107 6345.44 3756.31)" width="210.94" height="210.94"/>
  <rect class="fil0 str0" transform="matrix(1.0044 -0.707107 1.0044 0.707107 3.66887 4056.33)" width="210.94" height="210.94"/>
  <rect class="fil0 str0" transform="matrix(1.0044 -0.707107 1.0044 0.707107 424.965 4056.33)" width="210.94" height="210.94"/>
  <rect class="fil0 str0" transform="matrix(1.0044 -0.707107 1.0044 0.707107 850.273 4056.33)" width="210.94" height="210.94"/>
  <rect class="fil0 str0" transform="matrix(1.0044 -0.707107 1.0044 0.707107 1271.57 4056.33)" width="210.94" height="210.94"/>
  <rect class="fil0 str0" transform="matrix(1.0044 -0.707107 1.0044 0.707107 1695.5 4056.33)" width="210.94" height="210.94"/>
  <rect class="fil0 str0" transform="matrix(1.0044 -0.707107 1.0044 0.707107 2116.8 4056.33)" width="210.94" height="210.94"/>
  <rect class="fil0 str0" transform="matrix(1.0044 -0.707107 1.0044 0.707107 2542.11 4056.33)" width="210.94" height="210.94"/>
  <rect class="fil0 str0" transform="matrix(1.0044 -0.707107 1.0044 0.707107 2963.4 4056.33)" width="210.94" height="210.94"/>
  <rect class="fil0 str0" transform="matrix(1.0044 -0.707107 1.0044 0.707107 3385.7 4056.33)" width="210.94" height="210.94"/>
  <rect class="fil0 str0" transform="matrix(1.0044 -0.707107 1.0044 0.707107 3807 4056.33)" width="210.94" height="210.94"/>
  <rect class="fil0 str0" transform="matrix(1.0044 -0.707107 1.0044 0.707107 4232.31 4056.33)" width="210.94" height="210.94"/>
  <rect class="fil0 str0" transform="matrix(1.0044 -0.707107 1.0044 0.707107 4653.6 4056.33)" width="210.94" height="210.94"/>
  <rect class="fil0 str0" transform="matrix(1.0044 -0.707107 1.0044 0.707107 5077.54 4056.33)" width="210.94" height="210.94"/>
  <rect class="fil0 str0" transform="matrix(1.0044 -0.707107 1.0044 0.707107 5498.83 4056.33)" width="210.94" height="210.94"/>
  <rect class="fil0 str0" transform="matrix(1.0044 -0.707107 1.0044 0.707107 5924.14 4056.33)" width="210.94" height="210.94"/>
  <rect class="fil0 str0" transform="matrix(1.0044 -0.707107 1.0044 0.707107 6345.44 4056.33)" width="210.94" height="210.94"/>
  <rect class="fil0 str0" transform="matrix(1.0044 -0.707107 1.0044 0.707107 3.66887 4355.71)" width="210.94" height="210.94"/>
  <rect class="fil0 str0" transform="matrix(1.0044 -0.707107 1.0044 0.707107 424.965 4355.71)" width="210.94" height="210.94"/>
  <rect class="fil0 str0" transform="matrix(1.0044 -0.707107 1.0044 0.707107 850.273 4355.71)" width="210.94" height="210.94"/>
  <rect class="fil0 str0" transform="matrix(1.0044 -0.707107 1.0044 0.707107 1271.57 4355.71)" width="210.94" height="210.94"/>
  <rect class="fil0 str0" transform="matrix(1.0044 -0.707107 1.0044 0.707107 1695.5 4355.71)" width="210.94" height="210.94"/>
  <rect class="fil0 str0" transform="matrix(1.0044 -0.707107 1.0044 0.707107 2116.8 4355.71)" width="210.94" height="210.94"/>
  <rect class="fil0 str0" transform="matrix(1.0044 -0.707107 1.0044 0.707107 2542.11 4355.71)" width="210.94" height="210.94"/>
  <rect class="fil0 str0" transform="matrix(1.0044 -0.707107 1.0044 0.707107 2963.4 4355.71)" width="210.94" height="210.94"/>
  <rect class="fil0 str0" transform="matrix(1.0044 -0.707107 1.0044 0.707107 3385.7 4355.71)" width="210.94" height="210.94"/>
  <rect class="fil0 str0" transform="matrix(1.0044 -0.707107 1.0044 0.707107 3807 4355.71)" width="210.94" height="210.94"/>
  <rect class="fil0 str0" transform="matrix(1.0044 -0.707107 1.0044 0.707107 4232.31 4355.71)" width="210.94" height="210.94"/>
  <rect class="fil0 str0" transform="matrix(1.0044 -0.707107 1.0044 0.707107 4653.6 4355.71)" width="210.94" height="210.94"/>
  <rect class="fil0 str0" transform="matrix(1.0044 -0.707107 1.0044 0.707107 5077.54 4355.71)" width="210.94" height="210.94"/>
  <rect class="fil0 str0" transform="matrix(1.0044 -0.707107 1.0044 0.707107 5498.83 4355.71)" width="210.94" height="210.94"/>
  <rect class="fil0 str0" transform="matrix(1.0044 -0.707107 1.0044 0.707107 5924.14 4355.71)" width="210.94" height="210.94"/>
  <rect class="fil0 str0" transform="matrix(1.0044 -0.707107 1.0044 0.707107 6345.44 4355.71)" width="210.94" height="210.94"/>
  <rect class="fil0 str0" transform="matrix(1.0044 -0.707107 1.0044 0.707107 3.66887 4655.73)" width="210.94" height="210.94"/>
  <rect class="fil0 str0" transform="matrix(1.0044 -0.707107 1.0044 0.707107 424.965 4655.73)" width="210.94" height="210.94"/>
  <rect class="fil0 str0" transform="matrix(1.0044 -0.707107 1.0044 0.707107 850.273 4655.73)" width="210.94" height="210.94"/>
  <rect class="fil0 str0" transform="matrix(1.0044 -0.707107 1.0044 0.707107 1271.57 4655.73)" width="210.94" height="210.94"/>
  <rect class="fil0 str0" transform="matrix(1.0044 -0.707107 1.0044 0.707107 1695.5 4655.73)" width="210.94" height="210.94"/>
  <rect class="fil0 str0" transform="matrix(1.0044 -0.707107 1.0044 0.707107 2116.8 4655.73)" width="210.94" height="210.94"/>
  <rect class="fil0 str0" transform="matrix(1.0044 -0.707107 1.0044 0.707107 2542.11 4655.73)" width="210.94" height="210.94"/>
  <rect class="fil0 str0" transform="matrix(1.0044 -0.707107 1.0044 0.707107 2963.4 4655.73)" width="210.94" height="210.94"/>
  <rect class="fil0 str0" transform="matrix(1.0044 -0.707107 1.0044 0.707107 3385.7 4655.73)" width="210.94" height="210.94"/>
  <rect class="fil0 str0" transform="matrix(1.0044 -0.707107 1.0044 0.707107 3807 4655.73)" width="210.94" height="210.94"/>
  <rect class="fil0 str0" transform="matrix(1.0044 -0.707107 1.0044 0.707107 4232.31 4655.73)" width="210.94" height="210.94"/>
  <rect class="fil0 str0" transform="matrix(1.0044 -0.707107 1.0044 0.707107 4653.6 4655.73)" width="210.94" height="210.94"/>
  <rect class="fil0 str0" transform="matrix(1.0044 -0.707107 1.0044 0.707107 5077.54 4655.73)" width="210.94" height="210.94"/>
  <rect class="fil0 str0" transform="matrix(1.0044 -0.707107 1.0044 0.707107 5498.83 4655.73)" width="210.94" height="210.94"/>
  <rect class="fil0 str0" transform="matrix(1.0044 -0.707107 1.0044 0.707107 5924.14 4655.73)" width="210.94" height="210.94"/>
  <rect class="fil0 str0" transform="matrix(1.0044 -0.707107 1.0044 0.707107 6345.44 4655.73)" width="210.94" height="210.94"/>
  <rect class="fil0 str0" x="2.21" y="2.11" width="6771.28" height="4807.75"/>
 </g>
</svg>
